<svg width="12" height="14" viewBox="0 0 12 14" fill="none" xmlns="http://www.w3.org/2000/svg">
<path d="M0.800049 14V0H6.32505C7.40838 0 8.40838 0.333333 9.32505 1C10.2417 1.66667 10.7 2.59167 10.7 3.775C10.7 4.625 10.5084 5.27933 10.125 5.738C9.74172 6.19667 9.38338 6.52567 9.05005 6.725C9.46672 6.90833 9.92938 7.25 10.438 7.75C10.9467 8.25 11.2007 9 11.2 10C11.2 11.4833 10.6584 12.521 9.57505 13.113C8.49171 13.705 7.47505 14.0007 6.52505 14H0.800049ZM3.82505 11.2H6.42505C7.22505 11.2 7.71271 10.9957 7.88805 10.587C8.06338 10.1783 8.15071 9.88267 8.15005 9.7C8.15005 9.51667 8.06238 9.221 7.88705 8.813C7.71172 8.405 7.19938 8.20067 6.35005 8.2H3.82505V11.2ZM3.82505 5.5H6.15005C6.70005 5.5 7.10005 5.35833 7.35005 5.075C7.60005 4.79167 7.72505 4.475 7.72505 4.125C7.72505 3.725 7.58338 3.4 7.30005 3.15C7.01672 2.9 6.65005 2.775 6.20005 2.775H3.82505V5.5Z" fill="black"/>
</svg>
