<svg width="22" height="22" viewBox="0 0 22 22" fill="none" xmlns="http://www.w3.org/2000/svg">
<path d="M17.875 9.625C17.8749 7.97845 17.3821 6.36959 16.46 5.00544C15.5379 3.6413 14.2287 2.58427 12.7009 1.97037C11.1731 1.35648 9.49651 1.2138 7.88691 1.56069C6.27731 1.90758 4.80834 2.72818 3.669 3.91689C2.52965 5.10561 1.77208 6.60805 1.49374 8.23091C1.2154 9.85377 1.42903 11.5228 2.10715 13.0232C2.78527 14.5236 3.89685 15.7868 5.29886 16.6503C6.70088 17.5137 8.32918 17.9378 9.97426 17.8681C9.81835 17.4255 9.71362 16.9665 9.66213 16.5H9.62501C8.26526 16.5 6.93605 16.0968 5.80546 15.3414C4.67487 14.5859 3.79369 13.5122 3.27333 12.2559C2.75298 10.9997 2.61683 9.61737 2.88211 8.28375C3.14738 6.95014 3.80216 5.72513 4.76365 4.76364C5.72513 3.80216 6.95014 3.14738 8.28376 2.8821C9.61738 2.61683 10.9997 2.75298 12.256 3.27333C13.5122 3.79368 14.5859 4.67487 15.3414 5.80546C16.0968 6.93604 16.5 8.26525 16.5 9.625V9.66213C16.9744 9.71575 17.4323 9.82163 17.8681 9.97425C17.8723 9.85875 17.875 9.74188 17.875 9.625ZM9.77901 14.4347C9.89451 13.9287 10.0705 13.4461 10.3015 12.9965C9.7143 13.1154 9.10619 13.0783 8.53779 12.8889C7.9694 12.6995 7.46056 12.3644 7.06201 11.9171C6.93856 11.7891 6.7703 11.7139 6.59257 11.7073C6.41484 11.7007 6.24147 11.7632 6.10888 11.8818C5.97628 12.0003 5.89478 12.1656 5.8815 12.343C5.86821 12.5203 5.92418 12.6959 6.03763 12.8329C6.5058 13.3573 7.08339 13.7726 7.72963 14.0494C8.37587 14.3262 9.07636 14.4577 9.77901 14.4347ZM8.25001 8.25C8.25001 8.5235 8.14136 8.78581 7.94796 8.9792C7.75456 9.1726 7.49226 9.28125 7.21876 9.28125C6.94525 9.28125 6.68295 9.1726 6.48955 8.9792C6.29615 8.78581 6.18751 8.5235 6.18751 8.25C6.18751 7.9765 6.29615 7.71419 6.48955 7.5208C6.68295 7.3274 6.94525 7.21875 7.21876 7.21875C7.49226 7.21875 7.75456 7.3274 7.94796 7.5208C8.14136 7.71419 8.25001 7.9765 8.25001 8.25ZM12.0313 9.28125C12.3048 9.28125 12.5671 9.1726 12.7605 8.9792C12.9539 8.78581 13.0625 8.5235 13.0625 8.25C13.0625 7.9765 12.9539 7.71419 12.7605 7.5208C12.5671 7.3274 12.3048 7.21875 12.0313 7.21875C11.7578 7.21875 11.4954 7.3274 11.3021 7.5208C11.1087 7.71419 11 7.9765 11 8.25C11 8.5235 11.1087 8.78581 11.3021 8.9792C11.4954 9.1726 11.7578 9.28125 12.0313 9.28125ZM20.625 15.8125C20.625 17.0889 20.118 18.3129 19.2155 19.2155C18.3129 20.118 17.0889 20.625 15.8125 20.625C14.5362 20.625 13.3121 20.118 12.4096 19.2155C11.507 18.3129 11 17.0889 11 15.8125C11 14.5361 11.507 13.3121 12.4096 12.4095C13.3121 11.507 14.5362 11 15.8125 11C17.0889 11 18.3129 11.507 19.2155 12.4095C20.118 13.3121 20.625 14.5361 20.625 15.8125ZM16.5 13.0625C16.5 12.8802 16.4276 12.7053 16.2986 12.5764C16.1697 12.4474 15.9948 12.375 15.8125 12.375C15.6302 12.375 15.4553 12.4474 15.3264 12.5764C15.1974 12.7053 15.125 12.8802 15.125 13.0625V15.125H13.0625C12.8802 15.125 12.7053 15.1974 12.5764 15.3264C12.4474 15.4553 12.375 15.6302 12.375 15.8125C12.375 15.9948 12.4474 16.1697 12.5764 16.2986C12.7053 16.4276 12.8802 16.5 13.0625 16.5H15.125V18.5625C15.125 18.7448 15.1974 18.9197 15.3264 19.0486C15.4553 19.1776 15.6302 19.25 15.8125 19.25C15.9948 19.25 16.1697 19.1776 16.2986 19.0486C16.4276 18.9197 16.5 18.7448 16.5 18.5625V16.5H18.5625C18.7448 16.5 18.9197 16.4276 19.0486 16.2986C19.1776 16.1697 19.25 15.9948 19.25 15.8125C19.25 15.6302 19.1776 15.4553 19.0486 15.3264C18.9197 15.1974 18.7448 15.125 18.5625 15.125H16.5V13.0625Z" fill="#579945"/>
</svg>
