<svg width="18" height="18" viewBox="0 0 18 18" fill="none" xmlns="http://www.w3.org/2000/svg">
<path d="M8.99999 6L8.00249 6.0675C7.35749 5.3025 5.54999 3.375 3.74999 3.375C3.74999 3.375 2.27249 5.595 3.71999 8.5575C3.30749 9.18 3.05249 9.5025 2.99999 10.245L1.55249 10.4625L1.70999 11.1975L3.02999 11.0025L3.13499 11.535L1.95749 12.24L2.30999 12.9075L3.39749 12.24C4.25999 14.07 6.44249 15 8.99999 15C11.5575 15 13.74 14.07 14.6025 12.24L15.69 12.9075L16.0425 12.24L14.865 11.535L14.97 11.0025L16.29 11.1975L16.4475 10.4625L15 10.245C14.9475 9.5025 14.6925 9.18 14.28 8.5575C15.7275 5.595 14.25 3.375 14.25 3.375C12.45 3.375 10.6425 5.3025 9.99749 6.0675L8.99999 6ZM6.74999 8.25C6.9489 8.25 7.13967 8.32902 7.28032 8.46967C7.42097 8.61032 7.49999 8.80109 7.49999 9C7.49999 9.19891 7.42097 9.38968 7.28032 9.53033C7.13967 9.67098 6.9489 9.75 6.74999 9.75C6.55108 9.75 6.36031 9.67098 6.21966 9.53033C6.07901 9.38968 5.99999 9.19891 5.99999 9C5.99999 8.80109 6.07901 8.61032 6.21966 8.46967C6.36031 8.32902 6.55108 8.25 6.74999 8.25ZM11.25 8.25C11.4489 8.25 11.6397 8.32902 11.7803 8.46967C11.921 8.61032 12 8.80109 12 9C12 9.19891 11.921 9.38968 11.7803 9.53033C11.6397 9.67098 11.4489 9.75 11.25 9.75C11.0511 9.75 10.8603 9.67098 10.7197 9.53033C10.579 9.38968 10.5 9.19891 10.5 9C10.5 8.80109 10.579 8.61032 10.7197 8.46967C10.8603 8.32902 11.0511 8.25 11.25 8.25ZM8.24999 10.5H9.74999L9.22499 11.5425C9.37499 12.0225 9.79499 12.375 10.3125 12.375C10.6109 12.375 10.897 12.2565 11.108 12.0455C11.319 11.8345 11.4375 11.5484 11.4375 11.25H11.8125C11.8125 11.6478 11.6545 12.0294 11.3732 12.3107C11.0918 12.592 10.7103 12.75 10.3125 12.75C9.74999 12.75 9.26249 12.4425 8.99999 12C8.73749 12.4425 8.24999 12.75 7.68749 12.75C7.28967 12.75 6.90814 12.592 6.62683 12.3107C6.34553 12.0294 6.18749 11.6478 6.18749 11.25H6.56249C6.56249 11.5484 6.68102 11.8345 6.892 12.0455C7.10297 12.2565 7.38912 12.375 7.68749 12.375C8.20499 12.375 8.62499 12.0225 8.77499 11.5425L8.24999 10.5Z" fill="#D97500"/>
</svg>
