<svg width="18" height="18" viewBox="0 0 18 18" fill="none" xmlns="http://www.w3.org/2000/svg">
<path d="M16.065 10.4025C15.9 10.0575 15.63 9.705 15.1875 9.48C14.8875 9.2925 14.625 9.195 14.43 9.15C14.625 8.4375 14.3475 7.875 13.965 7.455C13.3875 6.84 12.795 6.75 12.795 6.75C12.99 6.375 13.065 5.925 12.96 5.49C12.84 4.9575 12.5475 4.62 12.165 4.395C11.775 4.1625 11.295 4.05 10.8 3.96C10.56 3.915 9.56246 3.7725 9.14996 3.2025C8.81246 2.7375 8.80496 1.8975 8.71496 1.65C8.67746 1.5525 8.62495 1.5 8.51995 1.5C8.36245 1.5 8.15245 1.59 7.92745 1.74C7.49995 2.025 6.63745 2.925 6.29995 3.825C6.04495 4.5 6.03745 5.115 6.14245 5.5725C5.72245 5.6475 5.41495 5.7825 5.29495 5.835C4.91245 6 4.10245 6.72 4.02745 7.8375C4.00495 8.1675 4.05745 8.505 4.12495 8.835V9.0225C3.65995 9.165 3.39745 9.3225 3.37495 9.33C3.13496 9.42 2.73746 9.6975 2.62495 9.8475C2.36246 10.1475 2.18995 10.5 2.09245 10.875C1.87495 11.6925 1.94996 12.6225 2.34746 13.3725C2.56496 13.7925 2.86496 14.25 3.19496 14.5725C4.27496 15.6825 6.13496 16.1025 7.60496 16.3425C8.21996 16.4475 8.84996 16.5 9.47246 16.5C10.665 16.5 11.85 16.2975 12.945 15.8475C15.4575 14.805 16.125 13.125 16.23 12.6675C16.4475 11.625 16.1775 10.6425 16.065 10.4025ZM12.0375 8.4975C12.1388 8.50115 12.2384 8.52516 12.3302 8.56809C12.4221 8.61102 12.5044 8.672 12.5722 8.74739C12.6401 8.82278 12.692 8.91105 12.725 9.00694C12.758 9.10282 12.7714 9.20437 12.7644 9.30554C12.7573 9.4067 12.73 9.50542 12.684 9.5958C12.638 9.68619 12.5743 9.7664 12.4967 9.83166C12.4191 9.89692 12.3291 9.9459 12.2322 9.97568C12.1353 10.0055 12.0333 10.0154 11.9325 10.005C11.8333 10.0002 11.736 9.97579 11.6463 9.93311C11.5566 9.89044 11.4763 9.83039 11.41 9.75643C11.3437 9.68247 11.2928 9.59608 11.2602 9.50228C11.2276 9.40848 11.2139 9.30913 11.22 9.21C11.25 8.8125 11.565 8.5125 11.955 8.4975H12.0375ZM15.135 12.4125C15.1275 12.4275 14.775 13.875 12.5175 14.805C11.6025 15.1875 10.575 15.375 9.47246 15.375C8.92496 15.375 8.35495 15.33 7.78495 15.2325C6.56995 15.0375 4.87495 14.67 3.98245 13.77C3.77995 13.5675 3.53996 13.2225 3.34496 12.8475C3.08996 12.375 3.02995 11.7375 3.17995 11.16C3.23995 10.935 3.33746 10.74 3.47246 10.59L3.48746 10.5675C3.55496 10.5 3.71246 10.41 3.77246 10.38L3.85495 10.35L3.94496 10.305C3.98996 10.275 4.09496 10.2225 4.25246 10.1625C4.59746 11.1075 5.45995 11.775 6.44245 11.775C6.50245 11.775 6.55495 11.7675 6.61495 11.7675C6.92498 11.7438 7.22661 11.6556 7.50045 11.5083C7.7743 11.361 8.01428 11.1581 8.20495 10.9125C8.60245 10.4175 8.79746 9.78 8.74496 9.1275C8.65496 7.875 7.66496 6.87 6.47996 6.8325H6.46495C6.37495 6.8325 6.29996 6.8325 6.23246 6.84C5.99996 6.8625 5.79745 6.9225 5.59495 7.005C5.66245 6.93 5.72245 6.8775 5.74495 6.8625C5.84245 6.825 6.05245 6.75 6.33745 6.6825L7.49995 6.4725L7.23745 5.3175C7.20745 5.175 7.14746 4.7625 7.35746 4.2225C7.46996 3.9 7.70245 3.57 7.93495 3.285C8.00995 3.4875 8.10746 3.6825 8.24996 3.8625C8.82746 4.6725 9.83996 4.935 10.545 5.055L10.5975 5.07C10.95 5.13 11.3475 5.2125 11.595 5.3625C11.7525 5.46 11.82 5.5575 11.865 5.7525C11.9025 5.9025 11.88 6.075 11.7975 6.2325L11.4075 6.9C10.4625 7.125 9.71246 7.98 9.59246 9.045C9.44246 10.4025 10.335 11.595 11.625 11.76C11.715 11.7675 11.805 11.775 11.8875 11.775C12.42 11.775 12.9375 11.58 13.365 11.2125C13.6725 10.9425 13.905 10.5975 14.055 10.215L14.175 10.245C14.25 10.26 14.3775 10.305 14.5875 10.4325L14.625 10.4625L14.6775 10.5C14.835 10.56 14.955 10.695 15.0375 10.875C15.0975 11.0025 15.285 11.7 15.135 12.4125ZM5.72995 9.3375C5.67745 8.925 5.97745 8.5425 6.39745 8.49C6.42745 8.4825 6.44996 8.4825 6.47996 8.4825C6.86246 8.475 7.20745 8.7525 7.25245 9.1425C7.29745 9.555 6.99746 9.9375 6.57746 9.99C6.47884 10.0037 6.37849 9.99756 6.28226 9.97205C6.18602 9.94653 6.09584 9.90211 6.01695 9.84137C5.93806 9.78064 5.87206 9.7048 5.82279 9.6183C5.77351 9.53179 5.74195 9.43633 5.72995 9.3375ZM6.53245 12.1125C6.74995 12.105 6.94495 12.1725 7.12495 12.21C8.00995 12.375 8.77495 12.3975 9.14245 12.3975C9.50995 12.3975 10.2675 12.375 11.145 12.21C11.4525 12.15 11.805 12.0225 12.0825 12.21C12.4425 12.45 12.18 13.3125 11.625 13.8975C11.3034 14.2299 10.9174 14.4931 10.4905 14.6711C10.0636 14.8491 9.6049 14.938 9.14245 14.9325C7.80745 14.9325 6.99745 14.25 6.65995 13.8975C6.10495 13.3125 5.84245 12.45 6.19495 12.21C6.29995 12.1425 6.41245 12.1125 6.53245 12.1125Z" fill="#A68100"/>
</svg>
