<svg width="40" height="40" viewBox="0 0 40 40" fill="none" xmlns="http://www.w3.org/2000/svg">
<g clip-path="url(#clip0_313_2)">
<path d="M7.38479 4.3434L9.87942 1.84948C9.93951 1.78911 9.98144 1.7131 10.0005 1.63008C10.0195 1.54706 10.0148 1.46038 9.98697 1.37988C9.95915 1.29939 9.90929 1.22832 9.84306 1.17475C9.77683 1.12118 9.69689 1.08727 9.61234 1.07688L0.50893 0.00318451C0.219121 -0.030901 -0.0309098 0.213378 0.00318542 0.508785L1.07718 9.60961C1.12264 9.98455 1.58293 10.1436 1.85001 9.87661L4.33327 7.39405L11.9308 14.9838C12.107 15.1599 12.3968 15.1599 12.5729 14.9838L14.9823 12.5807C15.1585 12.4046 15.1585 12.1149 14.9823 11.9388L7.38479 4.3434ZM27.4271 14.9838C27.6032 15.1599 27.893 15.1599 28.0692 14.9838L35.6667 7.39405L38.15 9.87661C38.2104 9.93668 38.2864 9.97861 38.3695 9.99762C38.4525 10.0166 38.5392 10.012 38.6197 9.98414C38.7002 9.95632 38.7713 9.90647 38.8249 9.84026C38.8785 9.77405 38.9124 9.69414 38.9228 9.60961L39.9968 0.514467C40.0309 0.22474 39.7866 -0.0252197 39.4911 0.00886577L30.3877 1.08256C30.0126 1.12801 29.8535 1.58816 30.1206 1.85516L32.6152 4.34908L25.0177 11.9331C24.9331 12.0185 24.8856 12.1339 24.8856 12.2541C24.8856 12.3743 24.9331 12.4896 25.0177 12.575L27.4271 14.9838ZM38.9228 30.3904C38.8774 30.0155 38.4171 29.8564 38.15 30.1234L35.6667 32.6059L28.0692 25.0162C27.9837 24.9317 27.8684 24.8842 27.7481 24.8842C27.6279 24.8842 27.5125 24.9317 27.4271 25.0162L25.0177 27.4193C24.9331 27.5047 24.8856 27.62 24.8856 27.7402C24.8856 27.8605 24.9331 27.9758 25.0177 28.0612L32.6152 35.6566L30.1206 38.1505C30.0605 38.2109 30.0186 38.2869 29.9995 38.3699C29.9805 38.4529 29.9852 38.5396 30.013 38.6201C30.0408 38.7006 30.0907 38.7717 30.1569 38.8252C30.2232 38.8788 30.3031 38.9127 30.3877 38.9231L39.4911 39.9968C39.7809 40.0309 40.0309 39.7866 39.9968 39.4912L38.9228 30.3904ZM12.5729 25.0162C12.4875 24.9317 12.3721 24.8842 12.2519 24.8842C12.1316 24.8842 12.0163 24.9317 11.9308 25.0162L4.33327 32.6059L1.85001 30.1234C1.78962 30.0633 1.71358 30.0214 1.63054 30.0024C1.5475 29.9834 1.46079 29.988 1.38027 30.0159C1.29976 30.0437 1.22867 30.0935 1.17508 30.1597C1.1215 30.2259 1.08758 30.3059 1.07718 30.3904L0.00318542 39.4855C-0.0309098 39.7753 0.213439 40.0252 0.50893 39.9911L9.61234 38.9174C9.98739 38.872 10.1465 38.4118 9.87942 38.1448L7.38479 35.6566L14.9823 28.0669C15.1585 27.8908 15.1585 27.6011 14.9823 27.425L12.5729 25.0162Z" fill="white"/>
</g>
<defs>
<clipPath id="clip0_313_2">
<rect width="40" height="40" fill="white"/>
</clipPath>
</defs>
</svg>
