<svg width="16" height="16" viewBox="0 0 16 16" fill="none" xmlns="http://www.w3.org/2000/svg">
<path d="M12.0922 6.77814C12.3547 6.43126 12.5 6.00626 12.5 5.56407C12.5 4.86251 12.1078 4.19845 11.4766 3.82814C11.3141 3.73282 11.129 3.68265 10.9406 3.68282H7.19375L7.2875 1.76251C7.30938 1.29845 7.14531 0.857824 6.82656 0.521887C6.67013 0.356305 6.48141 0.224563 6.27206 0.134801C6.0627 0.0450388 5.83716 -0.000835958 5.60938 1.15315e-05C4.79688 1.15315e-05 4.07812 0.546887 3.8625 1.3297L2.52031 6.18907H0.5C0.223437 6.18907 0 6.41251 0 6.68907V12.3766C0 12.6531 0.223437 12.8766 0.5 12.8766H9.89531C10.0391 12.8766 10.1797 12.8484 10.3094 12.7922C11.0531 12.475 11.5328 11.7484 11.5328 10.9422C11.5328 10.7453 11.5047 10.5516 11.4484 10.3641C11.7109 10.0172 11.8562 9.5922 11.8562 9.15001C11.8562 8.95314 11.8281 8.75939 11.7719 8.57189C12.0344 8.22501 12.1797 7.80001 12.1797 7.35782C12.1766 7.16095 12.1484 6.96564 12.0922 6.77814ZM1.125 11.7516V7.31407H2.39062V11.7516H1.125ZM11.0688 6.23595L10.7266 6.53282L10.9438 6.9297C11.0153 7.06043 11.0524 7.20723 11.0516 7.35626C11.0516 7.61407 10.9391 7.85939 10.7453 8.02814L10.4031 8.32501L10.6203 8.72189C10.6919 8.85262 10.729 8.99942 10.7281 9.14845C10.7281 9.40626 10.6156 9.65157 10.4219 9.82032L10.0797 10.1172L10.2969 10.5141C10.3684 10.6448 10.4055 10.7916 10.4047 10.9406C10.4047 11.2906 10.1984 11.6063 9.87969 11.75H3.39062V7.26407L4.94531 1.63126C4.9854 1.48689 5.07146 1.35951 5.19044 1.26844C5.30943 1.17737 5.45485 1.12757 5.60469 1.12657C5.72344 1.12657 5.84062 1.16095 5.93437 1.23126C6.08906 1.34689 6.17188 1.52189 6.1625 1.70782L6.0125 4.80782H10.925C11.2031 4.97814 11.375 5.26564 11.375 5.56407C11.375 5.82189 11.2625 6.06564 11.0688 6.23595Z" fill="#579945"/>
</svg>
