<svg width="24" height="24" viewBox="0 0 24 24" fill="none" xmlns="http://www.w3.org/2000/svg">
<path d="M11.514 17.1674C8.38921 17.1674 5.84717 14.6252 5.84717 11.5004C5.84717 8.37584 8.38921 5.83398 11.514 5.83398C14.6387 5.83398 17.1808 8.37584 17.1808 11.5004C17.1808 14.6252 14.6387 17.1674 11.514 17.1674ZM11.514 6.55273C8.7856 6.55273 6.56592 8.77241 6.56592 11.5004C6.56592 14.2288 8.78578 16.4487 11.514 16.4487C14.2422 16.4487 16.462 14.2288 16.462 11.5004C16.462 8.77241 14.2423 6.55273 11.514 6.55273Z" fill="#333333"/>
<path d="M11.5142 20.4994C11.3158 20.4994 11.1548 20.3384 11.1548 20.14V18.2217C11.1548 18.0231 11.3158 17.8623 11.5142 17.8623C11.7125 17.8623 11.8735 18.0231 11.8735 18.2217V20.14C11.8735 20.3382 11.7127 20.4994 11.5142 20.4994Z" fill="#333333"/>
<path d="M11.5142 5.13923C11.3158 5.13923 11.1548 4.97823 11.1548 4.77985V2.86133C11.1548 2.66295 11.3158 2.50195 11.5142 2.50195C11.7125 2.50195 11.8735 2.66295 11.8735 2.86133V4.77985C11.8735 4.97841 11.7127 5.13923 11.5142 5.13923Z" fill="#333333"/>
<path d="M20.1537 11.8594H18.2354C18.037 11.8594 17.876 11.6984 17.876 11.5C17.876 11.3016 18.037 11.1406 18.2354 11.1406H20.1537C20.3521 11.1406 20.5131 11.3016 20.5131 11.5C20.5131 11.6982 20.3522 11.8594 20.1537 11.8594Z" fill="#333333"/>
<path d="M4.79334 11.8594H2.875C2.67663 11.8594 2.51562 11.6984 2.51562 11.5C2.51562 11.3016 2.67663 11.1406 2.875 11.1406H4.79334C4.99172 11.1406 5.15272 11.3016 5.15272 11.5C5.15272 11.6982 4.99172 11.8594 4.79334 11.8594Z" fill="#333333"/>
<path d="M17.6228 17.9697C17.5308 17.9697 17.439 17.9347 17.3688 17.8644L16.0125 16.5079C15.8721 16.3676 15.8721 16.1401 16.0125 15.9998C16.1528 15.8594 16.3803 15.8594 16.5206 15.9998L17.8769 17.3562C18.0173 17.4966 18.0173 17.7241 17.8769 17.8644C17.8068 17.9347 17.7148 17.9697 17.6228 17.9697Z" fill="#333333"/>
<path d="M6.76151 7.10837C6.66951 7.10837 6.57769 7.07333 6.50743 7.00307L5.15115 5.64661C5.01081 5.50628 5.01081 5.27861 5.15115 5.13846C5.29149 4.99812 5.51897 4.99812 5.65931 5.13846L7.01559 6.49492C7.15592 6.63525 7.15592 6.86292 7.01559 7.00307C6.94533 7.07333 6.85351 7.10837 6.76151 7.10837Z" fill="#333333"/>
<path d="M16.2666 7.10837C16.1746 7.10837 16.0827 7.07333 16.0125 7.00307C15.8721 6.86274 15.8721 6.63507 16.0125 6.49492L17.3691 5.13846C17.5095 4.99812 17.7369 4.99812 17.8773 5.13846C18.0176 5.27879 18.0176 5.50646 17.8773 5.64661L16.5206 7.00307C16.4506 7.07333 16.3586 7.10837 16.2666 7.10837Z" fill="#333333"/>
<path d="M5.40523 17.9697C5.31323 17.9697 5.22141 17.9347 5.15115 17.8644C5.01081 17.7241 5.01081 17.4962 5.15115 17.3562L6.50761 15.9998C6.64795 15.8594 6.87543 15.8594 7.01577 15.9998C7.1561 16.1401 7.1561 16.368 7.01577 16.5079L5.65931 17.8644C5.58905 17.9347 5.49723 17.9697 5.40523 17.9697Z" fill="#333333"/>
</svg>
